# xmcd CD database file
#
# Track frame offsets:
#	150
#	10644
#	22217
#	33188
#	43674
#	52461
#	62082
#	73258
#	83374
#	92416
#	101810
#	112639
#	121661
#	130977
#	141384
#	150721
#	160758
#	168477
#	179175
#	189106
#	198732
#	206842
#	216354
#	227356
#
# Disc length: 3148 seconds
#
# Revision: 2
# Processed by: cddbd v1.5.2PL0 Copyright (c) Steve Scherf et al.
# Submitted via: jetAudio 7
#
DISCID=520c4a18
DTITLE=Floyd Cramer - Seven Classic Albums Plus CD3
DYEAR=2014
DGENRE=Instrumental
TTITLE0=The First Hurt
TTITLE1=Sentimental Journey
TTITLE2=My Funny Valentine
TTITLE3=Again
TTITLE4=The Dreamer
TTITLE5=My Blue Heaven
TTITLE6=Let's Go
TTITLE7=A String Of Pearls
TTITLE8=The Gospel Theme
TTITLE9=Lullaby Of Birdland
TTITLE10=Perdido
TTITLE11=Jordu
TTITLE12=Lovesick Blues
TTITLE13=Cold, Cold Heart
TTITLE14=Jambalaya (On The Bayou)
TTITLE15=Alone And Forsaken
TTITLE16=Why Don't You Love Me (Like You Used To Do)
TTITLE17=A House Of Gold
TTITLE18=Kaw-Liga
TTITLE19=I Can't Help It (If I'm Still In Love With You)
TTITLE20=Hey, Good Lookin'
TTITLE21=I'm So Lonesome I Could Cry
TTITLE22=Your Cheatin' Heart
TTITLE23=I Saw The Light
EXTD=© Real Gone Music RGMCD118 (2014)
EXTT0=
EXTT1=
EXTT2=
EXTT3=
EXTT4=
EXTT5=
EXTT6=
EXTT7=
EXTT8=
EXTT9=
EXTT10=
EXTT11=
EXTT12=
EXTT13=
EXTT14=
EXTT15=
EXTT16=
EXTT17=
EXTT18=
EXTT19=
EXTT20=
EXTT21=
EXTT22=
EXTT23=
PLAYORDER=
